<svg xmlns="http://www.w3.org/2000/svg" width="19.113" height="19.547" viewBox="0 0 19.113 19.547"><defs><style>.a{fill:#0d70ff;}</style></defs><g transform="translate(-5.411)"><g transform="translate(5.411)"><path class="a" d="M119.47,258.685a.443.443,0,0,0-.444-.443h-1.548a.443.443,0,0,0-.443.443v1.548a.443.443,0,0,0,.443.444h1.548a.444.444,0,0,0,.444-.444v-1.548Z" transform="translate(-112.565 -247.902)"/><path class="a" d="M216.105,258.685a.443.443,0,0,0-.443-.443h-1.548a.443.443,0,0,0-.443.443v1.548a.444.444,0,0,0,.443.444h1.548a.443.443,0,0,0,.443-.444Z" transform="translate(-205.331 -247.902)"/><path class="a" d="M312.733,258.685a.443.443,0,0,0-.443-.443h-1.548a.443.443,0,0,0-.444.443v1.548a.444.444,0,0,0,.444.444h1.548a.443.443,0,0,0,.443-.444Z" transform="translate(-298.09 -247.902)"/><path class="a" d="M119.47,355.318a.443.443,0,0,0-.444-.443h-1.548a.443.443,0,0,0-.443.443v1.548a.443.443,0,0,0,.443.443h1.548a.443.443,0,0,0,.444-.443v-1.548Z" transform="translate(-112.565 -340.665)"/><path class="a" d="M216.105,355.318a.443.443,0,0,0-.443-.443h-1.548a.443.443,0,0,0-.443.443v1.548a.443.443,0,0,0,.443.443h1.548a.443.443,0,0,0,.443-.443Z" transform="translate(-205.331 -340.665)"/><path class="a" d="M312.733,355.318a.443.443,0,0,0-.443-.443h-1.548a.443.443,0,0,0-.444.443v1.548a.443.443,0,0,0,.444.443h1.548a.443.443,0,0,0,.443-.443v-1.548Z" transform="translate(-298.09 -340.665)"/><path class="a" d="M22.823,54.15v2.364a1.931,1.931,0,0,1-1.936,1.93H19.666a1.941,1.941,0,0,1-1.947-1.93V54.142h-5.5v2.373a1.941,1.941,0,0,1-1.947,1.93H9.048a1.931,1.931,0,0,1-1.935-1.93V54.15a1.76,1.76,0,0,0-1.7,1.751V69.758a1.761,1.761,0,0,0,1.752,1.762H22.772a1.763,1.763,0,0,0,1.752-1.762V55.9A1.76,1.76,0,0,0,22.823,54.15ZM22.256,68.9a.758.758,0,0,1-.757.757H8.4a.758.758,0,0,1-.757-.757V61.738A.758.758,0,0,1,8.4,60.98H21.5a.758.758,0,0,1,.757.758V68.9Z" transform="translate(-5.411 -51.974)"/><path class="a" d="M80.214,5.2h1.208a.663.663,0,0,0,.664-.663V.664A.664.664,0,0,0,81.422,0H80.214a.664.664,0,0,0-.664.664V4.54A.663.663,0,0,0,80.214,5.2Z" transform="translate(-76.581)"/><path class="a" d="M345.122,5.2h1.208a.663.663,0,0,0,.664-.663V.664A.664.664,0,0,0,346.33,0h-1.208a.664.664,0,0,0-.664.664V4.54A.663.663,0,0,0,345.122,5.2Z" transform="translate(-330.882)"/></g></g></svg>