<svg xmlns="http://www.w3.org/2000/svg" xmlns:xlink="http://www.w3.org/1999/xlink" width="121" height="124" viewBox="0 0 121 124"><defs><style>.a{fill:#42bc42;}.b{fill:#fff;}.c{filter:url(#a);}</style><filter id="a" x="0" y="0" width="121" height="124" filterUnits="userSpaceOnUse"><feOffset input="SourceAlpha"/><feGaussianBlur stdDeviation="5" result="b"/><feFlood flood-opacity="0.141"/><feComposite operator="in" in2="b"/><feComposite in="SourceGraphic"/></filter></defs><g transform="translate(-15 -122)"><g class="c" transform="matrix(1, 0, 0, 1, 15, 122)"><rect class="a" width="91" height="94" rx="25" transform="translate(15 15)"/></g><path class="b" d="M38.232,17.242H25.488a.75.75,0,0,1-.75-.75V3.748a3.748,3.748,0,0,0-7.5,0V16.492a.75.75,0,0,1-.75.75H3.748a3.748,3.748,0,0,0,0,7.5H16.492a.75.75,0,0,1,.75.75V38.232a3.748,3.748,0,0,0,7.5,0V25.488a.75.75,0,0,1,.75-.75H38.232a3.748,3.748,0,1,0,0-7.5Zm0,0" transform="translate(55 163)"/></g></svg>