<svg xmlns="http://www.w3.org/2000/svg" width="17.575" height="21.735" viewBox="0 0 17.575 21.735">
  <g id="phone-book" transform="translate(-49)" opacity="0.5">
    <path id="Path_197" data-name="Path 197" d="M65.938,0H51a.637.637,0,0,0-.637.637v2.8h-.722a.637.637,0,0,0,0,1.274h.722V6.835h-.722a.637.637,0,0,0,0,1.274h.722v2.123h-.722a.637.637,0,0,0,0,1.274h.722v2.123h-.722a.637.637,0,0,0,0,1.274h.722v2.123h-.722a.637.637,0,0,0,0,1.274h.722v2.8a.637.637,0,0,0,.637.637H65.938a.637.637,0,0,0,.637-.637V.637A.637.637,0,0,0,65.938,0ZM61.863,15.919a.637.637,0,0,1-.637-.637c0-1.69-1.032-3.439-2.759-3.439s-2.759,1.748-2.759,3.439a.637.637,0,1,1-1.274,0,4.932,4.932,0,0,1,2.091-4.15,3.014,3.014,0,1,1,3.883,0,4.932,4.932,0,0,1,2.091,4.15A.637.637,0,0,1,61.863,15.919Z" fill="#0d70ff"/>
    <circle id="Ellipse_16" data-name="Ellipse 16" cx="1.757" cy="1.757" r="1.757" transform="translate(56.713 7.06)" fill="#0d70ff"/>
  </g>
</svg>
