<svg id="cashback" xmlns="http://www.w3.org/2000/svg" width="21.379" height="21.379" viewBox="0 0 21.379 21.379">
  <path id="Path_142" data-name="Path 142" d="M2.171,310.769H.626A.626.626,0,0,1,0,310.142v-7.516A.626.626,0,0,1,.626,302H2.171a.626.626,0,0,1,.626.626v7.516A.626.626,0,0,1,2.171,310.769Z" transform="translate(0 -289.39)" fill="#0d70ff"/>
  <path id="Path_143" data-name="Path 143" d="M113.546,313.537a1.512,1.512,0,0,0-1.538.047l-2.292,1.451a2.716,2.716,0,0,1-2.7,2.393h-3.114a.638.638,0,0,1-.643-.6.626.626,0,0,1,.626-.657h3.132a1.463,1.463,0,0,0,1.461-1.5,1.479,1.479,0,0,0-1.488-1.426h-3.522l-.409-.306a4.732,4.732,0,0,0-5.273-.272l-.791.474v6.368h10.528a3.132,3.132,0,0,0,1.714-.511l4.4-2.879a1.512,1.512,0,0,0-.1-2.59Z" transform="translate(-92.95 -298.972)" fill="#0d70ff"/>
  <path id="Path_144" data-name="Path 144" d="M92.22,0a5.22,5.22,0,1,0,5.22,5.22A5.225,5.225,0,0,0,92.22,0Zm.626,7.811v.122a.626.626,0,0,1-1.253,0V7.811A1.674,1.674,0,0,1,90.583,6.6a.626.626,0,1,1,1.228-.249.418.418,0,1,0,.409-.5,1.67,1.67,0,0,1-.626-3.218V2.505a.626.626,0,0,1,1.253,0v.123a1.674,1.674,0,0,1,1.01,1.214.626.626,0,1,1-1.228.249.418.418,0,1,0-.409.5,1.67,1.67,0,0,1,.626,3.218Z" transform="translate(-83.367)" fill="#0d70ff"/>
  <path id="Path_145" data-name="Path 145" d="M333.5,27.466a.626.626,0,0,0-.567-.361h-.912a10.686,10.686,0,0,0-6.238-7.236,6.465,6.465,0,0,1,1.542,5.9,6.969,6.969,0,0,1,.73,1.334h-.551a.626.626,0,0,0-.481,1.027l2.714,3.257a.626.626,0,0,0,.962,0l2.714-3.257A.626.626,0,0,0,333.5,27.466Z" transform="translate(-312.181 -19.039)" fill="#0d70ff"/>
</svg>
