<svg xmlns="http://www.w3.org/2000/svg" width="24.114" height="31.533" viewBox="0 0 24.114 31.533"><defs><style>.a{fill:#ff3f3e;}</style></defs><path class="a" d="M94.177,183.688a2.776,2.776,0,0,0,2.779,2.644h11.281a2.776,2.776,0,0,0,2.779-2.644L112.64,165H92.552Zm11.2-14.05h1.855v10.2h-1.855Zm-3.71,0h1.855v10.2h-1.855Zm-3.71,0h1.855v10.2H97.959Z" transform="translate(-90.539 -154.798)"/><path class="a" d="M76.694,4.637V2.782A2.786,2.786,0,0,0,73.912,0H70.2A2.786,2.786,0,0,0,67.42,2.782V4.637H60v3.71H84.114V4.637Zm-7.42,0V2.782a.929.929,0,0,1,.927-.927h3.71a.928.928,0,0,1,.927.927V4.637Z" transform="translate(-60)"/></svg>