<svg xmlns="http://www.w3.org/2000/svg" width="19.839" height="20.336" viewBox="0 0 19.839 20.336"><defs><style>.a{fill:#0d70ff;}</style></defs><path class="a" d="M18.984,0H.853A.852.852,0,0,0,.094.462a.864.864,0,0,0,.067.9L6.8,10.718l.007.009a1.9,1.9,0,0,1,.373,1.126v7.629a.848.848,0,0,0,.848.854.874.874,0,0,0,.334-.067L12.1,18.846a.809.809,0,0,0,.556-.8V11.854a1.9,1.9,0,0,1,.372-1.126l.007-.009,6.642-9.357a.863.863,0,0,0,.067-.9A.851.851,0,0,0,18.984,0Zm0,0" transform="translate(0.001 0)"/></svg>