<svg xmlns="http://www.w3.org/2000/svg" width="127.311" height="96.395" viewBox="0 0 127.311 96.395"><defs><style>.a{fill:#ff3f3e;}.b{fill:#5ada5a;}.c{fill:#0d70ff;}</style></defs><g transform="translate(-279.121 -434.754)"><g transform="translate(333.826 520.664)"><path class="a" d="M350.011,499.391a1.9,1.9,0,0,1-.742,1.508l-8.706,6.684a1.9,1.9,0,0,1-2.314-3.014l4.268-3.277H320.972a1.9,1.9,0,1,1,0-3.8h27.14a1.9,1.9,0,0,1,1.8,1.289A1.932,1.932,0,0,1,350.011,499.391Z" transform="translate(-319.071 -497.492)"/></g><g transform="translate(358.457 434.754)"><path class="b" d="M385.032,443.337a1.9,1.9,0,0,1-1.9,1.9H338.959a1.9,1.9,0,0,1-1.157-3.407l8.7-6.684a1.9,1.9,0,1,1,2.314,3.014l-4.268,3.277h38.58A1.9,1.9,0,0,1,385.032,443.337Z" transform="translate(-337.058 -434.754)"/></g><g transform="translate(333.826 449.39)"><path d="M335.8,474.6a1.826,1.826,0,0,1-.709,1.458,1.985,1.985,0,0,1-1.262.474,1.72,1.72,0,0,1-1.42-.709l-7.5-9.273-1.972,1.736v6.037a1.935,1.935,0,1,1-3.868,0V447.376a1.935,1.935,0,1,1,3.868,0v16.06l9.588-8.563a1.673,1.673,0,0,1,1.223-.514,1.649,1.649,0,0,1,1.342.633,1.671,1.671,0,0,1,.514,1.223,1.649,1.649,0,0,1-.633,1.342l-7.26,6.472,7.655,9.391A1.685,1.685,0,0,1,335.8,474.6Z" transform="translate(-319.071 -445.442)"/><path d="M336.093,450.255a2.569,2.569,0,1,1,1.835.771A2.5,2.5,0,0,1,336.093,450.255Zm.394,25.294a1.957,1.957,0,0,1-.572-1.441v-17.56a1.938,1.938,0,0,1,.572-1.458,2,2,0,0,1,3.453,1.458v17.56a1.991,1.991,0,0,1-.553,1.441,2.123,2.123,0,0,1-2.9,0Z" transform="translate(-313.068 -445.303)"/><path d="M358.02,452.643a1.837,1.837,0,0,1,1.183,1.579,1.408,1.408,0,0,1-.038.394,1.528,1.528,0,0,1-1.579,1.263,3.261,3.261,0,0,1-.592-.079,15.615,15.615,0,0,0-2.566-.275,7.436,7.436,0,0,0-4.576,1.3,4.158,4.158,0,0,0-1.736,3.511v11.523a2.021,2.021,0,0,1-.493,1.46,1.962,1.962,0,0,1-1.479.514,2.016,2.016,0,0,1-1.461-.494,1.96,1.96,0,0,1-.514-1.479V454.222a1.788,1.788,0,0,1,1.975-1.973,1.744,1.744,0,0,1,1.972,1.973v.749a8.334,8.334,0,0,1,2.919-2.169,8.871,8.871,0,0,1,3.71-.79A7.04,7.04,0,0,1,358.02,452.643Z" transform="translate(-309.801 -443.015)"/><path d="M372.61,453.511a10.619,10.619,0,0,1,3.907,3.945,11.006,11.006,0,0,1,1.441,5.584v8.8a2.013,2.013,0,1,1-4.026,0v-1.46a9.937,9.937,0,0,1-12.765,2.17,9.986,9.986,0,0,1-3.63-3.927,11.784,11.784,0,0,1-1.321-5.583,11.13,11.13,0,0,1,1.42-5.584,10.378,10.378,0,0,1,3.927-3.945,10.922,10.922,0,0,1,5.543-1.441A10.718,10.718,0,0,1,372.61,453.511Zm-1.933,15.94a6.824,6.824,0,0,0,2.506-2.643,7.785,7.785,0,0,0,.908-3.768,7.9,7.9,0,0,0-.908-3.788,6.956,6.956,0,0,0-9.648-2.665,6.935,6.935,0,0,0-2.525,2.665,7.758,7.758,0,0,0-.927,3.788,7.647,7.647,0,0,0,.927,3.768,6.962,6.962,0,0,0,2.525,2.643,7.08,7.08,0,0,0,7.142,0Z" transform="translate(-305.352 -442.994)"/><path d="M335.8,500.913a1.827,1.827,0,0,1-.709,1.46,1.992,1.992,0,0,1-1.262.474,1.718,1.718,0,0,1-1.42-.711l-7.5-9.273-1.972,1.736v6.037a1.935,1.935,0,1,1-3.868,0v-26.95a1.935,1.935,0,1,1,3.868,0v16.06l9.588-8.563a1.668,1.668,0,0,1,1.223-.514,1.647,1.647,0,0,1,1.342.631,1.676,1.676,0,0,1,.514,1.223,1.647,1.647,0,0,1-.633,1.342l-7.26,6.472,7.655,9.392A1.684,1.684,0,0,1,335.8,500.913Z" transform="translate(-319.071 -435.724)"/><path d="M336.093,476.566a2.572,2.572,0,1,1,1.835.77A2.5,2.5,0,0,1,336.093,476.566Zm.394,25.293a1.954,1.954,0,0,1-.572-1.439V482.86a1.939,1.939,0,0,1,.572-1.46,2,2,0,0,1,3.453,1.46v17.56a1.988,1.988,0,0,1-.553,1.439,2.123,2.123,0,0,1-2.9,0Z" transform="translate(-313.068 -435.586)"/><path d="M358.02,478.955a1.835,1.835,0,0,1,1.183,1.577,1.4,1.4,0,0,1-.038.394,1.528,1.528,0,0,1-1.579,1.264,3.251,3.251,0,0,1-.592-.079,15.618,15.618,0,0,0-2.566-.275,7.436,7.436,0,0,0-4.576,1.3,4.161,4.161,0,0,0-1.736,3.512v11.522a2.026,2.026,0,0,1-.493,1.461,1.967,1.967,0,0,1-1.479.512,2.022,2.022,0,0,1-1.461-.493,1.961,1.961,0,0,1-.514-1.48V480.532a1.788,1.788,0,0,1,1.975-1.972,1.743,1.743,0,0,1,1.972,1.972v.75a8.32,8.32,0,0,1,2.919-2.17,8.871,8.871,0,0,1,3.71-.79A7.039,7.039,0,0,1,358.02,478.955Z" transform="translate(-309.801 -433.298)"/><path d="M372.61,479.82a10.624,10.624,0,0,1,3.907,3.946,11.005,11.005,0,0,1,1.441,5.584v8.8a2.013,2.013,0,1,1-4.026,0v-1.46a9.937,9.937,0,0,1-12.765,2.17,9.982,9.982,0,0,1-3.63-3.926,11.788,11.788,0,0,1-1.321-5.583,11.13,11.13,0,0,1,1.42-5.584,10.382,10.382,0,0,1,3.927-3.946,10.921,10.921,0,0,1,5.543-1.439A10.717,10.717,0,0,1,372.61,479.82Zm-1.933,15.942a6.828,6.828,0,0,0,2.506-2.644,7.784,7.784,0,0,0,.908-3.767,7.9,7.9,0,0,0-.908-3.789,6.957,6.957,0,0,0-9.648-2.663,6.931,6.931,0,0,0-2.525,2.663,7.763,7.763,0,0,0-.927,3.789,7.645,7.645,0,0,0,.927,3.767,6.966,6.966,0,0,0,2.525,2.644,7.079,7.079,0,0,0,7.142,0Z" transform="translate(-305.352 -433.276)"/></g><g transform="translate(279.121 449.4)"><path class="c" d="M283.96,501.309a.9.9,0,0,1-.853-1.184l5.116-15.35a3.584,3.584,0,0,1,1.323-1.79l9.169-6.677a.9.9,0,0,1,1.059,1.453l-9.176,6.682a1.8,1.8,0,0,0-.668.9l-5.116,15.35A.9.9,0,0,1,283.96,501.309Z" transform="translate(-277.666 -434.116)"/><path class="c" d="M315.657,501.309a.9.9,0,0,1-.853-.615l-5.116-15.352a1.794,1.794,0,0,0-.661-.894l-9.183-6.688a.9.9,0,0,1,1.059-1.453l9.176,6.682a3.565,3.565,0,0,1,1.315,1.783l5.117,15.352a.9.9,0,0,1-.853,1.185Z" transform="translate(-271.603 -434.116)"/><path class="c" d="M328.568,477.537a.9.9,0,0,1-.452-.122l-10.159-5.927a1.8,1.8,0,0,0-.906-.245H291.538a1.8,1.8,0,0,0-.906.245l-10.159,5.927a.9.9,0,1,1-.905-1.554l10.158-5.925a3.606,3.606,0,0,1,1.813-.49h25.512a3.606,3.606,0,0,1,1.813.49l10.159,5.925a.9.9,0,0,1-.455,1.676Z" transform="translate(-279.121 -436.587)"/><path class="c" d="M303.566,471.771a.955.955,0,0,1-.231-.03l-12.794-3.408a3.6,3.6,0,0,1-1.6-.928l-7.585-7.585a.9.9,0,1,1,1.271-1.271l7.585,7.585a1.81,1.81,0,0,0,.8.463l12.558,3.345,12.564-3.347a1.8,1.8,0,0,0,.794-.461l7.585-7.585a.9.9,0,1,1,1.271,1.271L318.2,467.4a3.6,3.6,0,0,1-1.6.927l-12.8,3.41A.939.939,0,0,1,303.566,471.771Z" transform="translate(-278.393 -440.709)"/><path class="c" d="M298.161,474.141c-4.234.713-7.422,3.975-7.422,9.955,0,6.822,5.147,14.6,9.264,14.6s9.265-7.775,9.265-14.6c0-5.98-3.188-9.242-7.422-9.955" transform="translate(-274.83 -434.852)"/><path class="c" d="M303.111,451.063h-6.533a1.016,1.016,0,0,1-.891-.525c-.974-1.769-2.563-3.77-4.108-4.078a.511.511,0,1,1,.2-1c2.309.461,4.127,3.362,4.8,4.586l6.53,0c.671-1.221,2.49-4.122,4.8-4.583a.511.511,0,1,1,.2,1c-1.545.308-3.134,2.309-4.108,4.078A1.016,1.016,0,0,1,303.111,451.063Z" transform="translate(-274.671 -445.449)"/><path class="c" d="M300.563,478.832c1.4-1.4,2.355-4.282,2.355-7.618,0-4.711-1.909-8.528-4.264-8.528s-4.263,3.818-4.263,8.528c0,3.336.96,6.217,2.355,7.618" transform="translate(-273.481 -439.083)"/><path class="c" d="M300.784,446.847c-6.715,0-12.16,7.471-12.16,14.188s5.445,10.135,12.16,10.135,12.161-3.418,12.161-10.135S307.5,446.847,300.784,446.847Zm-7.972,11A3.189,3.189,0,1,1,296,461.033,3.189,3.189,0,0,1,292.811,457.844Zm7.972,9.573c-4.671,0-4.783-3.374-4.783-3.374h9.568S305.455,467.417,300.784,467.417Zm4.784-6.384a3.189,3.189,0,1,1,3.189-3.189A3.189,3.189,0,0,1,305.568,461.033Z" transform="translate(-275.611 -444.933)"/></g></g></svg>