<svg xmlns="http://www.w3.org/2000/svg" width="19.217" height="20.964" viewBox="0 0 19.217 20.964"><defs><style>.a{fill:#0d70ff;}</style></defs><g transform="translate(-1)"><g transform="translate(15.528 0.655)"><path class="a" d="M21.447,9.6a.874.874,0,0,1-.873-.873,9.113,9.113,0,0,0-2.686-6.486.873.873,0,1,1,1.235-1.235,10.847,10.847,0,0,1,3.2,7.721A.874.874,0,0,1,21.447,9.6Z" transform="translate(-17.632 -0.75)"/></g><g transform="translate(1 0.655)"><path class="a" d="M1.873,9.6A.874.874,0,0,1,1,8.727,10.847,10.847,0,0,1,4.2,1.006.873.873,0,0,1,5.433,2.241,9.112,9.112,0,0,0,2.747,8.727a.874.874,0,0,1-.873.873Z" transform="translate(-1 -0.75)"/></g><g transform="translate(1.873 0)"><path class="a" d="M18.927,14.773A5.85,5.85,0,0,1,16.849,10.3V7.861a6.119,6.119,0,0,0-5.241-6.045V.873a.873.873,0,1,0-1.747,0v.943A6.119,6.119,0,0,0,4.62,7.861V10.3A5.857,5.857,0,0,1,2.535,14.78a1.528,1.528,0,0,0,.994,2.689H17.941a1.529,1.529,0,0,0,.986-2.7Z" transform="translate(-2 0)"/><path class="a" d="M11.535,23.62A3.281,3.281,0,0,0,14.744,21H8.326A3.281,3.281,0,0,0,11.535,23.62Z" transform="translate(-2.8 -2.657)"/></g></g></svg>