<svg xmlns="http://www.w3.org/2000/svg" width="21.248" height="21.293" viewBox="0 0 21.248 21.293"><defs><style>.a{fill:#0d70ff;}</style></defs><g transform="translate(-0.539)"><g transform="translate(0.539 0)"><path class="a" d="M21.23,15.627l-2.971-2.971a1.976,1.976,0,0,0-3.29.743,2.022,2.022,0,0,1-2.335,1.273A9.163,9.163,0,0,1,7.116,9.153,1.923,1.923,0,0,1,8.389,6.818a1.976,1.976,0,0,0,.743-3.29L6.16.557A2.12,2.12,0,0,0,3.3.557L1.279,2.574c-2.016,2.122.212,7.747,5.2,12.735s10.612,7.323,12.735,5.2l2.016-2.016A2.119,2.119,0,0,0,21.23,15.627Z" transform="translate(-0.539 0)"/></g></g></svg>