<svg id="magnifier_3_" data-name="magnifier (3)" xmlns="http://www.w3.org/2000/svg" width="19.173" height="19.173" viewBox="0 0 19.173 19.173">
  <g id="Group_47" data-name="Group 47" transform="translate(0 0)">
    <path id="Path_148" data-name="Path 148" d="M16.9,13.277a7.78,7.78,0,0,0-11-11,7.629,7.629,0,0,0-1.17,9.389.327.327,0,0,1-.045.39L.712,16.023a1.813,1.813,0,0,0-.278,2.6l.121.121a1.813,1.813,0,0,0,2.6-.277L7.111,14.5a.332.332,0,0,1,.4-.053A7.629,7.629,0,0,0,16.9,13.277ZM7.333,11.841a5.748,5.748,0,1,1,8.129,0A5.755,5.755,0,0,1,7.333,11.841Z" transform="translate(-0.001 0)" fill="#0d70ff"/>
    <g id="Group_46" data-name="Group 46" transform="translate(7.026 3.113)">
      <path id="Path_149" data-name="Path 149" d="M114.555,54.61a.8.8,0,0,1-.739-1.116,5.06,5.06,0,0,1,6.625-2.685.8.8,0,1,1-.626,1.479,3.453,3.453,0,0,0-4.52,1.832A.8.8,0,0,1,114.555,54.61Z" transform="translate(-113.752 -50.409)" fill="#0d70ff"/>
    </g>
  </g>
</svg>
