<svg xmlns="http://www.w3.org/2000/svg" width="22.416" height="25.415" viewBox="0 0 22.416 25.415">
  <path id="Union_3" data-name="Union 3" d="M-466.388-150.866a1.451,1.451,0,0,1-.561-1.545l4.529-17.788a1.371,1.371,0,0,1,1.681-1.015,1.43,1.43,0,0,1,.98,1.741l-3.524,13.841.538-.415a1.345,1.345,0,0,1,1.925.29,1.46,1.46,0,0,1-.28,1.995l-3.694,2.856a1.345,1.345,0,0,1-.824.283A1.342,1.342,0,0,1-466.388-150.866Zm-5.348-3.543a1.419,1.419,0,0,1-1.093-1.741l3.929-13.841-.6.415a1.613,1.613,0,0,1-2.147-.29,1.359,1.359,0,0,1,.312-1.995l4.12-2.857a1.631,1.631,0,0,1,1.776-.039,1.378,1.378,0,0,1,.626,1.545l-5.049,17.788a1.52,1.52,0,0,1-1.482,1.062A1.662,1.662,0,0,1-471.737-154.409Zm12.57-2.8a1.418,1.418,0,0,1-1.092-1.741l1.647-5.8a1.548,1.548,0,0,1,1.875-1.015,1.419,1.419,0,0,1,1.092,1.742l-1.647,5.8a1.52,1.52,0,0,1-1.482,1.062A1.627,1.627,0,0,1-459.167-157.212Zm-16.689-2.64a1.419,1.419,0,0,1-1.093-1.741l1.648-5.8a1.546,1.546,0,0,1,1.874-1.014,1.418,1.418,0,0,1,1.093,1.741l-1.647,5.8a1.52,1.52,0,0,1-1.483,1.062A1.626,1.626,0,0,1-475.857-159.852Z" transform="translate(477.505 175.538)" fill="#0d70ff" stroke="rgba(0,0,0,0)" stroke-miterlimit="10" stroke-width="1" opacity="0.5"/>
</svg>
